<?xml version="1.0" encoding="utf-8"?>
<!-- Generator: Adobe Illustrator 20.1.0, SVG Export Plug-In . SVG Version: 6.00 Build 0)  -->
<svg version="1.1" id="Layer_1" xmlns="http://www.w3.org/2000/svg" xmlns:xlink="http://www.w3.org/1999/xlink" x="0px" y="0px"
	 viewBox="0 0 792 612" style="enable-background:new 0 0 792 612;" xml:space="preserve">
<style type="text/css">
	.st0{fill:#F1F2F2;}
	.st1{fill:#009444;}
	.st2{fill:#414042;}
	.st3{fill:url(#SVGID_1_);}
	.st4{fill:url(#SVGID_2_);}
	.st5{fill:none;}
	.st6{fill:#FFFFFF;}
	.st7{font-family:'ProzaLibre-Regular';}
	.st8{font-size:13.0158px;}
</style>
<g>
	<path class="st0" d="M-0.5-0.6c0,88.2,0,176.3,0,264.5C240.2,83.2,496.1,4.7,790.9,0.4C527.1,0.1,263.3-0.3-0.5-0.6z"/>
	<path class="st1" d="M-0.8-1.2c0,76,0.1,191.7,0.1,267.7c0,0,116.1-95,256.9-154.2c0-20.7,0.4-113,0.4-113S116.4-1-0.8-1.2z"/>
	<g>
		<path class="st2" d="M62.5,46.8c0,0,63.7-24.2,129.3-0.6l-0.7,64.7c0,0-61.2,27.3-128.2,1.8L62.5,46.8z"/>
		
			<linearGradient id="SVGID_1_" gradientUnits="userSpaceOnUse" x1="69.1136" y1="67.9746" x2="182.429" y2="67.9746" gradientTransform="matrix(0.9999 1.099184e-02 -1.099184e-02 0.9999 2.7901 -4.1912)">
			<stop  offset="0" style="stop-color:#58595B;stop-opacity:0.5"/>
			<stop  offset="1" style="stop-color:#FFFFFF"/>
		</linearGradient>
		<path class="st3" d="M184.5,65.9c0,0-52.3-35-113,1.3L71,79C71,79,110.2,39.5,184.5,65.9z"/>
		
			<linearGradient id="SVGID_2_" gradientUnits="userSpaceOnUse" x1="534.5178" y1="413.3522" x2="630.7666" y2="413.3522" gradientTransform="matrix(-0.9999 -1.099184e-02 1.099184e-02 -0.9999 697.584 507.2844)">
			<stop  offset="0" style="stop-color:#FFFFFF"/>
			<stop  offset="1" style="stop-color:#414042;stop-opacity:0.5"/>
		</linearGradient>
		<path class="st4" d="M71.2,105.9l0.1-13.1c0,0,40.8-37,96.5-18.9C167.8,73.9,109.5,62.2,71.2,105.9z"/>
		<rect x="96.2" y="93" class="st5" width="125.1" height="24.6"/>
		<text transform="matrix(1.0143 0 0 1 96.1756 103.2194)" class="st6 st7 st8">ZEN GARDEN</text>
	</g>
</g>
</svg>
