<svg xmlns="http://www.w3.org/2000/svg" viewBox="0 0 1367 564.5"><defs><style>.cls-1{fill:#093;}.cls-2,.cls-5{fill:#fff;}.cls-3,.cls-4{fill:none;}.cls-3,.cls-5{stroke:#fff;stroke-miterlimit:10;}</style></defs><title>zengarden-banner-logo</title><g id="Layer_2" data-name="Layer 2"><g id="Layer_4" data-name="Layer 4"><path class="cls-1" d="M0,1.36S1,449.56,0,564.5C115.57,456.07,250,336.58,443,234.83V.92ZM368.51,48.6q-.72,66-1.45,132.05c0,1.8-.09,3.75-1.21,5.17a8.15,8.15,0,0,1-3.71,2.24c-86.19,32.61-183.7,34.34-271,4.79-1.61-.54-3.31-1.17-4.32-2.53s-1.12-3.31-1.14-5.07Q84.91,125.63,84.1,66q-.09-7.16-.19-14.31c-.08-5.71-.14-6,5.36-7.86,8.62-2.91,17.39-5.43,26.18-7.74A451.4,451.4,0,0,1,169,25.5a459.06,459.06,0,0,1,46-3.87A450.39,450.39,0,0,1,363.43,41.46a7.73,7.73,0,0,1,4.05,2.26C368.51,45.07,368.53,46.9,368.51,48.6Z"/><path class="cls-2" d="M1367,0C948.58,29.1,659.11,120.85,443,234.83V.92Z"/></g><g id="Layer_5" data-name="Layer 5"><path class="cls-3" d="M351,86.07a9.9,9.9,0,0,0-1.2-1c-44.9-25.22-93-34.92-144.16-29.6-1.16.12-3,1.7-3.08,2.74-.37,3.73-.14,7.51-.14,12C253.63,62.51,302.71,70.06,351,86.07Zm-37.63,17.71a8.44,8.44,0,0,0-1.45-.61c-34.84-10.44-70.09-12.32-105.76-4.88-6.6,1.37-6.58,1.47-7.53,8-.8,5.51.2,6.42,5.5,5a252.15,252.15,0,0,1,69.17-9.42C286.87,102,300.45,103.13,313.34,103.78ZM197.27,149.29c0,5.86-.06,11.61.06,17.36,0,.93.84,1.84,1.28,2.77.5-1,1.38-2,1.42-3,.15-4.67.06-9.34.06-15,4.16,5.86,7.71,11,11.41,16,.75,1,2.06,1.62,4.06,3.11,0-7.34.06-13.21-.07-19.08,0-.88-1-1.73-1.49-2.59-.47.89-1.32,1.77-1.36,2.68-.15,3.84-.06,7.7-.06,11.55a84.9,84.9,0,0,1-9-11.6C202.12,149.25,200.48,148,197.27,149.29Zm132.46,0c0,5.75-.06,11.62.07,17.48,0,.89.92,1.76,1.41,2.64.45-.91,1.25-1.81,1.28-2.73.13-4.76.06-9.53.06-15.27,4.14,5.83,7.62,10.87,11.27,15.77.8,1.08,2.19,1.72,4.2,3.22,0-7.36.06-13.24-.08-19.12,0-.83-1.06-1.64-1.62-2.46-.43.81-1.2,1.61-1.22,2.43-.13,3.95-.06,7.91-.06,11.86A86.63,86.63,0,0,1,336,151.36C334.47,149.08,332.78,148.07,329.73,149.31Zm-39.82-.5v20.55c6.26.16,12.55,1.33,16.5-4.94,2.25-3.57,2.69-7.54.24-11.14C302.48,147.16,296.05,149,289.91,148.81Zm-19.21.08c0,6,0,11.51,0,17a4.27,4.27,0,0,0,0,1.56,13.69,13.69,0,0,0,1.29,2c.61-.64,1.66-1.23,1.76-1.94a61.07,61.07,0,0,0,.08-6.85c2,1,3.41,1.24,4.18,2.11,1.2,1.35,1.76,3.26,2.95,4.62.93,1.07,2.41,1.66,3.65,2.47l.73-1-5.52-8.43c2.95-2.29,5.28-4.86,3.36-8.23C280.46,147.27,275.53,149,270.7,148.89Zm-26.77,11.49-1.26-.77c-.48,1.16-1.45,2.36-1.36,3.47.33,3.93-1.85,4.36-4.84,3.92-3.66-.53-5.95-2.58-6.59-6.25-1.14-6.55,3.52-10.46,10.76-9.22.85.14,1.83-.49,2.75-.76-.71-.59-1.33-1.56-2.13-1.72a13,13,0,0,0-11.45,2.65,10.89,10.89,0,0,0-2.21,13c2.46,4.26,8.75,6.25,14.35,4.14C246.45,167.12,243.48,163.26,243.93,160.38Zm9.84,3.6h1.73c3.38.06,7.36-1.11,8,4.29.07.57,1.88.93,3.78,1.79-2.71-7.21-5-13.35-7.37-19.42a3.14,3.14,0,0,0-2.14-1.74,2.94,2.94,0,0,0-2.31,1.43c-2.46,6.18-4.74,12.42-7.17,18.87C253,170.07,251.53,165.74,253.77,164Zm-61.36-13.3-.2-1.65H180.3v19.89h12.22l0-1.37-9-.64v-6.6l7.34-.71-.06-1.54-7.64-.68.28-6Zm130.94,8.95,0-1.57-7.64-.69c.11-2.3.2-4.18.27-5.86l8.94-1.11-.22-1.37H312.76v19.89H325l0-1.37-9-.64v-6.6Zm-162.88-10.3-.05,1.35,10.12.7-11.75,18.21c6.23-.44,11.34.67,16.3-.76l0-1.36-11.49-.56L175,149.33Z"/><path class="cls-4" d="M368.51,48.6q-.72,66-1.45,132.05c0,1.8-.09,3.75-1.21,5.17a8.15,8.15,0,0,1-3.71,2.24c-86.19,32.61-183.7,34.34-271,4.79-1.61-.54-3.31-1.17-4.32-2.53s-1.12-3.31-1.14-5.07Q84.91,125.63,84.1,66q-.09-7.16-.19-14.31c-.08-5.71-.14-6,5.36-7.86,8.62-2.91,17.39-5.43,26.18-7.74A451.4,451.4,0,0,1,169,25.5a459.06,459.06,0,0,1,46-3.87A450.39,450.39,0,0,1,363.43,41.46a7.73,7.73,0,0,1,4.05,2.26C368.51,45.07,368.53,46.9,368.51,48.6Z"/><path class="cls-5" d="M351,86.07c-48.26-16-97.34-23.56-148.58-15.86,0-4.45-.23-8.23.14-12,.11-1,1.92-2.62,3.08-2.74,51.16-5.32,99.26,4.38,144.16,29.6A9.9,9.9,0,0,1,351,86.07Z"/><path class="cls-5" d="M313.34,103.78c-12.89-.65-26.47-1.81-40.07-1.91a252.15,252.15,0,0,0-69.17,9.42c-5.3,1.47-6.3.56-5.5-5,1-6.58.93-6.68,7.53-8,35.67-7.44,70.92-5.56,105.76,4.88A8.44,8.44,0,0,1,313.34,103.78Z"/><path class="cls-5" d="M197.27,149.29c3.21-1.25,4.85,0,6.32,2.19a84.9,84.9,0,0,0,9,11.6c0-3.85-.09-7.71.06-11.55,0-.91.89-1.79,1.36-2.68.52.86,1.47,1.71,1.49,2.59.13,5.87.07,11.74.07,19.08-2-1.49-3.31-2.09-4.06-3.11-3.7-5-7.25-10.1-11.41-16,0,5.66.09,10.33-.06,15,0,1-.92,2-1.42,3-.44-.93-1.26-1.84-1.28-2.77C197.21,160.9,197.27,155.15,197.27,149.29Z"/><path class="cls-5" d="M329.73,149.31c3-1.24,4.74-.23,6.24,2.05A86.63,86.63,0,0,0,345,163.13c0-3.95-.07-7.91.06-11.86,0-.82.79-1.62,1.22-2.43.56.82,1.6,1.63,1.62,2.46.14,5.88.08,11.76.08,19.12-2-1.5-3.4-2.14-4.2-3.22-3.65-4.9-7.13-9.94-11.27-15.77,0,5.74.07,10.51-.06,15.27,0,.92-.83,1.82-1.28,2.73-.49-.88-1.39-1.75-1.41-2.64C329.67,160.93,329.73,155.06,329.73,149.31Z"/><path class="cls-5" d="M289.91,148.81c6.14.22,12.57-1.65,16.74,4.47,2.45,3.6,2,7.57-.24,11.14-4,6.27-10.24,5.1-16.5,4.94ZM293,166.93c4.47.45,8.47.6,10.75-3.55,1.75-3.2,1.75-6.7-.7-9.54-2.65-3.09-6.26-3.09-10-2.38Z"/><path class="cls-5" d="M270.7,148.89c4.83.08,9.76-1.62,12.53,3.26,1.92,3.37-.41,5.94-3.36,8.23l5.52,8.43-.73,1c-1.24-.81-2.72-1.4-3.65-2.47-1.19-1.36-1.75-3.27-2.95-4.62-.77-.87-2.2-1.15-4.18-2.11a61.07,61.07,0,0,1-.08,6.85c-.1.71-1.15,1.3-1.76,1.94a13.69,13.69,0,0,1-1.29-2,4.27,4.27,0,0,1,0-1.56C270.7,160.4,270.7,154.9,270.7,148.89ZM274.14,160c2.56-1.28,4.64-1.79,5.8-3.1.7-.79.57-3.5-.21-4.17-1.31-1.14-3.43-1.34-5.59-2.07Z"/><path class="cls-5" d="M243.93,160.38c-.45,2.88,2.52,6.74-2,8.44-5.6,2.11-11.89.12-14.35-4.14a10.89,10.89,0,0,1,2.21-13,13,13,0,0,1,11.45-2.65c.8.16,1.42,1.13,2.13,1.72-.92.27-1.9.9-2.75.76-7.24-1.24-11.9,2.67-10.76,9.22.64,3.67,2.93,5.72,6.59,6.25,3,.44,5.17,0,4.84-3.92-.09-1.11.88-2.31,1.36-3.47Z"/><path class="cls-5" d="M253.77,164c-2.24,1.76-.82,6.09-5.45,5.22,2.43-6.45,4.71-12.69,7.17-18.87a2.94,2.94,0,0,1,2.31-1.43,3.14,3.14,0,0,1,2.14,1.74c2.4,6.07,4.66,12.21,7.37,19.42-1.9-.86-3.71-1.22-3.78-1.79-.67-5.4-4.65-4.23-8-4.29Zm3.72-12.37-3.29,9.68h6.61C259.74,158.15,258.81,155.47,257.49,151.61Z"/><path class="cls-5" d="M192.41,150.68l-8.91.67-.28,6,7.64.68.06,1.54-7.34.71v6.6l9,.64,0,1.37H180.3V149h11.91Z"/><path class="cls-5" d="M323.35,159.63l-7.32.68v6.6l9,.64,0,1.37H312.76V149h11.91l.22,1.37L316,151.51c-.07,1.68-.16,3.56-.27,5.86l7.64.69Z"/><path class="cls-5" d="M160.47,149.33H175l-11.33,17.58,11.49.56,0,1.36c-5,1.43-10.07.32-16.3.76l11.75-18.21-10.12-.7Z"/></g></g></svg>