<svg xmlns="http://www.w3.org/2000/svg" viewBox="0 0 1367 409.5"><defs><style>.cls-1{fill:#093;}.cls-2,.cls-5{fill:#fff;}.cls-3,.cls-4{fill:none;}.cls-3,.cls-5{stroke:#fff;stroke-miterlimit:10;}</style></defs><title>ZenGarden-header</title><g id="Layer_2" data-name="Layer 2"><g id="Layer_4" data-name="Layer 4"><path class="cls-1" d="M0,1S1,326.12,0,409.5c115.57-78.66,250-165.34,443-239.15V.67ZM368.51,35.26q-.72,47.9-1.45,95.79a4.79,4.79,0,0,1-1.21,3.75,9.06,9.06,0,0,1-3.71,1.62c-86.19,23.66-183.7,24.91-271,3.48a9.46,9.46,0,0,1-4.32-1.84,4.87,4.87,0,0,1-1.14-3.68q-.8-43.24-1.6-86.5C84,44.42,84,41,83.91,37.5c-.08-4.15-.14-4.36,5.36-5.7,8.62-2.12,17.39-3.94,26.18-5.62C133.06,22.84,151,20.28,169,18.5q22.86-2.25,46-2.81A611.16,611.16,0,0,1,363.43,30.08a8.78,8.78,0,0,1,4.05,1.64A4.38,4.38,0,0,1,368.51,35.26Z"/><path class="cls-2" d="M1367,0C948.58,21.11,659.11,87.67,443,170.35V.67Z"/></g><g id="Layer_5" data-name="Layer 5"><path class="cls-3" d="M351,62.43a10.1,10.1,0,0,0-1.2-.69c-44.9-18.3-93-25.33-144.16-21.47-1.16.09-3,1.23-3.08,2a66.18,66.18,0,0,0-.14,8.67C253.63,45.34,302.71,50.82,351,62.43ZM313.34,75.28a11.88,11.88,0,0,0-1.45-.44A289.76,289.76,0,0,0,206.13,71.3c-6.6,1-6.58,1.07-7.53,5.84-.8,4,.2,4.66,5.5,3.59a342.13,342.13,0,0,1,69.17-6.83C286.87,74,300.45,74.81,313.34,75.28Zm-116.07,33c0,4.25-.06,8.42.06,12.59,0,.68.84,1.34,1.28,2,.5-.72,1.38-1.43,1.42-2.16.15-3.38.06-6.77.06-10.87,4.16,4.25,7.71,7.95,11.41,11.58.75.73,2.06,1.16,4.06,2.25,0-5.32.06-9.58-.07-13.84,0-.64-1-1.26-1.49-1.88-.47.64-1.32,1.28-1.36,1.94-.15,2.79-.06,5.59-.06,8.38a68.35,68.35,0,0,1-9-8.42C202.12,108.27,200.48,107.39,197.27,108.3Zm132.46,0c0,4.17-.06,8.42.07,12.67,0,.65.92,1.28,1.41,1.92.45-.66,1.25-1.31,1.28-2,.13-3.46.06-6.92.06-11.08,4.14,4.23,7.62,7.88,11.27,11.44.8.78,2.19,1.25,4.2,2.33,0-5.33.06-9.6-.08-13.86,0-.61-1.06-1.19-1.62-1.79-.43.59-1.2,1.17-1.22,1.77-.13,2.86-.06,5.73-.06,8.6A70.67,70.67,0,0,1,336,109.8C334.47,108.15,332.78,107.41,329.73,108.32ZM289.91,108v14.9c6.26.12,12.55,1,16.5-3.58,2.25-2.58,2.69-5.46.24-8.08C302.48,106.75,296.05,108.11,289.91,108ZM270.7,108c0,4.35,0,8.34,0,12.33,0,.39-.15.81,0,1.14a10.68,10.68,0,0,0,1.29,1.44c.61-.47,1.66-.9,1.76-1.41a32.18,32.18,0,0,0,.08-5c2,.69,3.41.9,4.18,1.53,1.2,1,1.76,2.36,2.95,3.35a17.47,17.47,0,0,0,3.65,1.79l.73-.75-5.52-6.12c2.95-1.66,5.28-3.52,3.36-6C280.46,106.83,275.53,108.07,270.7,108Zm-26.77,8.34-1.26-.57c-.48.84-1.45,1.72-1.36,2.52.33,2.85-1.85,3.16-4.84,2.85-3.66-.39-5.95-1.88-6.59-4.54-1.14-4.75,3.52-7.59,10.76-6.69a9.08,9.08,0,0,0,2.75-.55c-.71-.43-1.33-1.13-2.13-1.24-4.17-.61-8.12-.14-11.45,1.92-3.53,2.17-4.5,6.52-2.21,9.41,2.46,3.09,8.75,4.54,14.35,3C246.45,121.23,243.48,118.43,243.93,116.35Zm9.84,2.61h1.73c3.38,0,7.36-.81,8,3.1.07.42,1.88.68,3.78,1.31-2.71-5.24-5-9.69-7.37-14.09A3.1,3.1,0,0,0,257.8,108a3.18,3.18,0,0,0-2.31,1c-2.46,4.48-4.74,9-7.17,13.68C253,123.37,251.53,120.23,253.77,119Zm-61.36-9.65-.2-1.2H180.3v14.43h12.22l0-1-9-.46v-4.79l7.34-.51-.06-1.12-7.64-.5.28-4.37Zm130.94,6.49,0-1.14-7.64-.5c.11-1.67.2-3,.27-4.25l8.94-.81-.22-1H312.76v14.43H325l0-1-9-.46v-4.79Zm-162.88-7.48-.05,1,10.12.51L158.79,123c6.23-.31,11.34.49,16.3-.55l0-1-11.49-.41L175,108.32Z"/><path class="cls-4" d="M368.51,35.26q-.72,47.9-1.45,95.79a4.79,4.79,0,0,1-1.21,3.75,9.06,9.06,0,0,1-3.71,1.62c-86.19,23.66-183.7,24.91-271,3.48a9.46,9.46,0,0,1-4.32-1.84,4.87,4.87,0,0,1-1.14-3.68q-.8-43.24-1.6-86.5C84,44.42,84,41,83.91,37.5c-.08-4.15-.14-4.36,5.36-5.7,8.62-2.12,17.39-3.94,26.18-5.62C133.06,22.84,151,20.28,169,18.5q22.86-2.25,46-2.81A611.16,611.16,0,0,1,363.43,30.08a8.78,8.78,0,0,1,4.05,1.64A4.38,4.38,0,0,1,368.51,35.26Z"/><path class="cls-5" d="M351,62.43c-48.26-11.61-97.34-17.09-148.58-11.5a66.18,66.18,0,0,1,.14-8.67c.11-.76,1.92-1.9,3.08-2,51.16-3.86,99.26,3.17,144.16,21.47A10.1,10.1,0,0,1,351,62.43Z"/><path class="cls-5" d="M313.34,75.28c-12.89-.47-26.47-1.31-40.07-1.38a342.13,342.13,0,0,0-69.17,6.83c-5.3,1.07-6.3.41-5.5-3.59,1-4.77.93-4.84,7.53-5.84a289.76,289.76,0,0,1,105.76,3.54A11.88,11.88,0,0,1,313.34,75.28Z"/><path class="cls-5" d="M197.27,108.3c3.21-.91,4.85,0,6.32,1.58a68.35,68.35,0,0,0,9,8.42c0-2.79-.09-5.59.06-8.38,0-.66.89-1.3,1.36-1.94.52.62,1.47,1.24,1.49,1.88.13,4.26.07,8.52.07,13.84-2-1.09-3.31-1.52-4.06-2.25-3.7-3.63-7.25-7.33-11.41-11.58,0,4.1.09,7.49-.06,10.87,0,.73-.92,1.44-1.42,2.16-.44-.67-1.26-1.33-1.28-2C197.21,116.72,197.27,112.55,197.27,108.3Z"/><path class="cls-5" d="M329.73,108.32c3-.91,4.74-.17,6.24,1.48a70.67,70.67,0,0,0,9.07,8.54c0-2.87-.07-5.74.06-8.6,0-.6.79-1.18,1.22-1.77.56.6,1.6,1.18,1.62,1.79.14,4.26.08,8.53.08,13.86-2-1.08-3.4-1.55-4.2-2.33-3.65-3.56-7.13-7.21-11.27-11.44,0,4.16.07,7.62-.06,11.08,0,.67-.83,1.32-1.28,2-.49-.64-1.39-1.27-1.41-1.92C329.67,116.74,329.73,112.49,329.73,108.32Z"/><path class="cls-5" d="M289.91,108c6.14.16,12.57-1.2,16.74,3.24,2.45,2.62,2,5.5-.24,8.08-4,4.55-10.24,3.7-16.5,3.58ZM293,121.1c4.47.32,8.47.43,10.75-2.58,1.75-2.32,1.75-4.86-.7-6.92-2.65-2.24-6.26-2.24-10-1.73Z"/><path class="cls-5" d="M270.7,108c4.83.06,9.76-1.18,12.53,2.36,1.92,2.45-.41,4.31-3.36,6l5.52,6.12-.73.75a17.47,17.47,0,0,1-3.65-1.79c-1.19-1-1.75-2.37-2.95-3.35-.77-.63-2.2-.84-4.18-1.53a32.18,32.18,0,0,1-.08,5c-.1.51-1.15.94-1.76,1.41a10.68,10.68,0,0,1-1.29-1.44c-.19-.33,0-.75,0-1.14C270.7,116.35,270.7,112.36,270.7,108Zm3.44,8.09c2.56-.93,4.64-1.3,5.8-2.26a2.34,2.34,0,0,0-.21-3c-1.31-.82-3.43-1-5.59-1.5Z"/><path class="cls-5" d="M243.93,116.35c-.45,2.08,2.52,4.88-2,6.11-5.6,1.54-11.89.09-14.35-3-2.29-2.89-1.32-7.24,2.21-9.41,3.33-2.06,7.28-2.53,11.45-1.92.8.11,1.42.81,2.13,1.24a9.08,9.08,0,0,1-2.75.55c-7.24-.9-11.9,1.94-10.76,6.69.64,2.66,2.93,4.15,6.59,4.54,3,.31,5.17,0,4.84-2.85-.09-.8.88-1.68,1.36-2.52Z"/><path class="cls-5" d="M253.77,119c-2.24,1.27-.82,4.41-5.45,3.78,2.43-4.68,4.71-9.2,7.17-13.68a3.18,3.18,0,0,1,2.31-1,3.1,3.1,0,0,1,2.14,1.26c2.4,4.4,4.66,8.85,7.37,14.09-1.9-.63-3.71-.89-3.78-1.31-.67-3.91-4.65-3.06-8-3.1Zm3.72-9-3.29,7h6.61Z"/><path class="cls-5" d="M192.41,109.31l-8.91.48-.28,4.37,7.64.5.06,1.12-7.34.51v4.79l9,.46,0,1H180.3V108.11h11.91Z"/><path class="cls-5" d="M323.35,115.8l-7.32.49v4.79l9,.46,0,1H312.76V108.11h11.91l.22,1-8.94.81c-.07,1.22-.16,2.58-.27,4.25l7.64.5Z"/><path class="cls-5" d="M160.47,108.32H175l-11.33,12.76,11.49.41,0,1c-5,1-10.07.24-16.3.55l11.75-13.21-10.12-.51Z"/></g></g></svg>